<svg width="14" height="14" viewBox="0 0 14 14" fill="none" xmlns="http://www.w3.org/2000/svg">
<path fill-rule="evenodd" clip-rule="evenodd" d="M10.5919 13.3208V8.31922C10.5919 7.37065 10.3332 6.3574 9.19063 6.3574C8.54388 6.3574 7.98337 6.81012 7.76778 7.41376C7.68155 7.65091 7.68155 7.88805 7.68155 8.1252V13.3208H4.9221C4.9221 10.3026 4.94366 7.30597 4.85742 4.28778H7.25039L7.37974 5.55973H7.42285C8.00492 4.61115 9.08284 4.09375 10.1823 4.09375C12.4675 4.09375 13.3729 5.92623 13.3729 7.99584V13.3208H10.5919ZM0.501953 13.3208V4.28809H3.26135V13.3208H0.501953ZM1.9025 0.385742C2.72173 0.385742 3.34692 0.946289 3.34692 1.78711C3.34692 2.64949 2.70017 3.18848 1.85939 3.18848C1.04016 3.18848 0.436523 2.60637 0.436523 1.78711C0.436523 0.946289 1.08328 0.385742 1.9025 0.385742Z" fill="url(#paint0_linear_1666_368)"/>
<defs>
<linearGradient id="paint0_linear_1666_368" x1="3.67062" y1="0.385743" x2="12.7655" y2="2.90841" gradientUnits="userSpaceOnUse">
<stop stop-color="#545AE7"/>
<stop offset="1" stop-color="#393FCF"/>
</linearGradient>
</defs>
</svg>
