<svg width="14" height="10" viewBox="0 0 14 10" fill="none" xmlns="http://www.w3.org/2000/svg">
<path fill-rule="evenodd" clip-rule="evenodd" d="M10.571 1.77116C10.571 1.77116 10.571 1.67116 10.571 1.77116C10.0618 1.27114 9.45067 1.07113 8.83957 1.17113C9.45067 1.07113 9.75622 0.871118 9.85807 0.771113C9.85807 0.671108 9.85807 0.571104 9.75622 0.571104C9.45067 0.571104 9.14512 0.671108 8.94142 0.771113C9.24697 0.571104 9.34882 0.471099 9.34882 0.371094C9.04327 0.371094 8.73772 0.571104 8.33032 0.871118C8.43217 0.671108 8.53402 0.571104 8.43217 0.471099C8.22847 0.571104 8.12662 0.671108 8.02477 0.871118C7.71922 1.17113 7.51552 1.37114 7.41367 1.67116C7.00627 2.37119 6.70072 2.97122 6.49702 3.67126H6.39517C6.19147 3.37124 5.88592 3.07123 5.47852 2.87122C5.07112 2.5712 4.56188 2.37119 3.95078 2.07118C3.33968 1.77116 2.72858 1.47115 2.01563 1.27114C2.01563 1.97117 2.32118 2.5712 3.03413 2.97122C2.83043 2.97122 2.52488 2.97122 2.32118 3.07123C2.32118 3.67126 2.83043 4.17128 3.74708 4.37129C3.44153 4.37129 3.13598 4.47129 2.83043 4.6713C3.13598 5.27133 3.64523 5.47134 4.46003 5.47134C4.35818 5.57135 4.15448 5.67135 4.15448 5.67135C4.05263 5.77136 3.95078 5.97137 4.05263 6.17138C4.25633 6.47139 4.46003 6.5714 4.96927 6.5714C4.25633 7.27143 3.33968 7.67145 2.32118 7.57145C1.71008 7.57145 0.997129 7.27143 0.28418 6.6714C0.997129 7.67145 2.01563 8.47149 3.23783 8.97151C4.66372 9.37153 6.08962 9.47154 7.41367 9.07152C8.73772 8.6715 9.95992 7.87146 10.8766 6.77141C11.284 6.17138 11.5895 5.57135 11.6914 4.97132C12.4043 4.97132 12.9136 4.77131 13.2191 4.37129C13.0154 4.47129 12.5062 4.47129 11.7932 4.27128C12.5062 4.17128 13.0154 3.97127 13.1173 3.57125C12.608 3.77126 12.0988 3.77126 11.5895 3.57125C11.4877 2.87122 11.1821 2.27119 10.571 1.77116Z" fill="url(#paint0_linear_1666_384)"/>
<defs>
<linearGradient id="paint0_linear_1666_384" x1="3.51791" y1="0.371094" x2="11.9571" y2="3.75184" gradientUnits="userSpaceOnUse">
<stop stop-color="#545AE7"/>
<stop offset="1" stop-color="#393FCF"/>
</linearGradient>
</defs>
</svg>
