<svg width="65" height="53" viewBox="0 0 65 53" fill="none" xmlns="http://www.w3.org/2000/svg">
<path d="M32.4296 52.7672C34.6909 52.7672 36.5242 50.934 36.5242 48.6726C36.5242 46.4112 34.6909 44.578 32.4296 44.578C30.1682 44.578 28.335 46.4112 28.335 48.6726C28.335 50.934 30.1682 52.7672 32.4296 52.7672Z" fill="white"/>
<path d="M63.6512 14.0998C55.4955 5.34937 44.4517 0.530153 32.5528 0.530029C20.6549 0.530153 9.61102 5.34937 1.4552 14.0998C0.520891 15.1023 0.576106 16.6727 1.57866 17.6071C2.58134 18.5414 4.15156 18.4863 5.08599 17.4836C12.2925 9.75155 22.047 5.4933 32.5537 5.49318C43.0594 5.4933 52.814 9.75155 60.0205 17.4836C60.5092 18.008 61.1719 18.2733 61.8363 18.2733C62.4422 18.2733 63.0496 18.0527 63.5278 17.6071C64.5303 16.6725 64.5857 15.1023 63.6512 14.0998Z" fill="white"/>
<path d="M54.5403 24.348C48.5117 18.2739 40.7035 14.9288 32.5541 14.9291C24.4027 14.9292 16.5944 18.2744 10.5677 24.3483C9.60236 25.3212 9.60844 26.8924 10.5813 27.8577C11.5542 28.823 13.1254 28.817 14.0908 27.8441C19.1786 22.7164 25.7357 19.8923 32.5541 19.8922C39.3707 19.892 45.9277 22.7161 51.0175 27.8443C51.5026 28.333 52.1406 28.5777 52.7789 28.5777C53.4107 28.5777 54.043 28.3378 54.5271 27.8575C55.4998 26.892 55.5058 25.3208 54.5403 24.348Z" fill="white"/>
<path d="M44.6084 34.6259C41.3799 31.4273 36.7521 29.4404 32.5307 29.4404C32.5302 29.4404 32.5293 29.4404 32.5288 29.4404H32.35C32.3493 29.4404 32.3489 29.4404 32.3482 29.4404C28.1266 29.4404 23.4985 31.4274 20.2701 34.6259C19.2966 35.5905 19.2893 37.1617 20.2538 38.1354C20.7391 38.6251 21.3779 38.8704 22.0168 38.8704C22.6479 38.8704 23.2794 38.6311 23.7632 38.1517C26.0615 35.8747 29.4311 34.4036 32.3484 34.4036C32.3488 34.4036 32.3493 34.4036 32.3497 34.4036H32.5292C32.5297 34.4036 32.5298 34.4036 32.5303 34.4036C35.4473 34.4036 38.8171 35.8748 41.1152 38.1517C42.0887 39.1162 43.6602 39.1093 44.6246 38.1354C45.5893 37.1618 45.582 35.5905 44.6084 34.6259Z" fill="white"/>
</svg>
