<svg width="51" height="53" viewBox="0 0 51 53" fill="none" xmlns="http://www.w3.org/2000/svg">
<path d="M50.6521 19.8817V11.8239C50.6484 8.65567 48.0808 6.088 44.9125 6.08431H43.4012V5.1781C43.3881 2.60675 41.2999 0.530029 38.729 0.530029C36.158 0.530029 34.0703 2.60675 34.0563 5.1781V6.08431H17.1758V5.1781C17.1627 2.60675 15.0746 0.530029 12.5036 0.530029C9.93268 0.530029 7.84492 2.60675 7.83101 5.1781V6.08431H6.31929C3.15143 6.088 0.58376 8.65567 0.580078 11.8239V47.0275C0.58376 50.1958 3.15143 52.7635 6.31929 52.7671H44.9125C48.0808 52.7635 50.6484 50.1958 50.6521 47.0275V20.7101C50.7429 20.4413 50.7429 20.1504 50.6521 19.8817V19.8817ZM38.729 3.11856C39.8655 3.1202 40.7865 4.04073 40.7877 5.1781V7.92988C40.7791 9.06029 39.8594 9.97223 38.7281 9.97223C37.5973 9.97223 36.678 9.06029 36.669 7.92988V5.1781C36.6702 4.04073 37.5916 3.11979 38.729 3.11856ZM10.4437 5.1781C10.4527 4.04687 11.372 3.13493 12.5028 3.13493C13.634 3.13493 14.5529 4.04687 14.5623 5.1781V7.92988C14.5529 9.06029 13.634 9.97223 12.5028 9.97223C11.372 9.97223 10.4527 9.06029 10.4437 7.92988V5.1781ZM6.31929 8.6974H7.89483C8.27041 10.95 10.2191 12.6013 12.5028 12.6013C14.787 12.6013 16.7356 10.95 17.1112 8.6974H34.1206C34.4962 10.95 36.4452 12.6013 38.729 12.6013C41.0127 12.6013 42.9618 10.95 43.3369 8.6974H44.9125C46.6386 8.69944 48.037 10.0978 48.039 11.8239V18.9889H3.19316V11.8243C3.1948 10.0982 4.59401 8.69944 6.31929 8.6974V8.6974ZM44.9125 50.1541H6.31929C4.59401 50.152 3.19521 48.7536 3.19316 47.0275V21.602H48.039V47.0275C48.037 48.7536 46.6386 50.152 44.9125 50.1541V50.1541Z" fill="white"/>
</svg>
