<svg width="22" height="21" viewBox="0 0 22 21" fill="none" xmlns="http://www.w3.org/2000/svg">
<path d="M16.654 7.6085C17.4315 8.94998 17.8425 10.4829 17.8425 12.0414C17.8425 14.4063 16.9216 16.6296 15.2494 18.3017C13.5772 19.9739 11.3539 20.8948 8.98914 20.8948C6.62432 20.8948 4.40102 19.9739 2.72886 18.3017C1.05666 16.6296 0.135742 14.4063 0.135742 12.0414C0.135742 9.6766 1.05666 7.4533 2.72886 5.78115C4.40106 4.10899 6.62432 3.18803 8.98914 3.18803C10.5478 3.18803 12.0807 3.59903 13.4221 4.37658C13.5781 4.46702 13.6313 4.66678 13.5409 4.82276C13.4504 4.97878 13.2506 5.03191 13.0947 4.94152C11.8526 4.22154 10.433 3.84103 8.98919 3.84103C4.46742 3.84099 0.788705 7.5197 0.788705 12.0414C0.788705 16.5632 4.46742 20.2419 8.98914 20.2419C13.5109 20.2419 17.1896 16.5632 17.1896 12.0415C17.1896 10.5978 16.809 9.1781 16.0891 7.93596C15.9986 7.77999 16.0518 7.58022 16.2078 7.48979C16.3637 7.39935 16.5636 7.45249 16.654 7.6085ZM20.9349 4.16478L18.1645 6.93522C18.1025 6.99725 18.0191 7.03084 17.9336 7.03084C17.9055 7.03084 17.8771 7.0272 17.8492 7.01973L15.1862 6.30617L9.22001 12.2723C9.15626 12.336 9.07272 12.3679 8.98914 12.3679C8.90556 12.3679 8.82203 12.336 8.75828 12.2723C8.63079 12.1448 8.63079 11.9381 8.75828 11.8106L14.7244 5.84444L14.0109 3.18146C13.9807 3.06878 14.0129 2.94855 14.0954 2.86607L16.8658 0.0956344C16.9483 0.0131571 17.0685 -0.0190422 17.1812 0.0111166C17.2939 0.0413161 17.3818 0.129303 17.412 0.24198L18.1256 2.90497L20.7886 3.61849C20.9013 3.64869 20.9893 3.73668 21.0195 3.84935C21.0497 3.96203 21.0174 4.0823 20.9349 4.16478ZM20.0734 4.10291L17.7745 3.48692C17.6618 3.45672 17.5738 3.36873 17.5436 3.25606L16.9276 0.957219L14.6903 3.19451L15.3551 5.67545L17.836 6.3402L20.0734 4.10291ZM8.98914 7.46828C9.66896 7.46828 10.3233 7.61405 10.934 7.90152C11.0971 7.97824 11.2917 7.9083 11.3684 7.74518C11.4452 7.58202 11.3752 7.38756 11.2121 7.31075C10.5138 6.98203 9.76584 6.81532 8.98914 6.81532C6.10746 6.81532 3.76303 9.15974 3.76303 12.0414C3.76303 14.9231 6.10746 17.2675 8.98914 17.2675C11.8708 17.2675 14.2153 14.9231 14.2153 12.0414C14.2153 11.2649 14.0486 10.5169 13.7198 9.8185C13.6431 9.65538 13.4486 9.58539 13.2854 9.66211C13.1222 9.73892 13.0522 9.93338 13.129 10.0965C13.4165 10.7073 13.5623 11.3617 13.5623 12.0414C13.5623 14.563 11.5108 16.6145 8.9891 16.6145C6.46744 16.6145 4.41595 14.563 4.41595 12.0414C4.41595 9.51973 6.46748 7.46828 8.98914 7.46828Z" fill="white"/>
</svg>
