<svg width="48" height="53" viewBox="0 0 48 53" fill="none" xmlns="http://www.w3.org/2000/svg">
<path d="M42.5538 18.0605V8.20328C42.5538 2.53688 38.5991 0.530029 34.8805 0.530029H12.8052C9.08658 0.530029 5.13191 2.53688 5.13191 8.20328V18.0605C2.41676 18.7688 0.409912 21.1888 0.409912 24.14V39.9587C0.409912 44.6217 3.53824 46.4515 6.60754 46.6285V50.6422C6.60754 51.8227 7.55194 52.7671 8.73244 52.7671H10.9164C12.0969 52.7671 13.0413 51.8227 13.0413 50.6422V46.6285H34.7034V50.6422C34.7034 51.8227 35.6478 52.7671 36.8283 52.7671H39.0123C40.1928 52.7671 41.1372 51.8227 41.1372 50.6422V46.6285C45.6821 46.3924 47.3348 43.087 47.3348 39.9587V24.081C47.2167 21.1888 45.2099 18.7097 42.5538 18.0605ZM7.25681 8.20328C7.25681 3.36323 10.7393 2.5959 12.8052 2.5959H34.8805C36.9464 2.5959 40.4289 3.3042 40.4289 8.14425V17.8244C37.2415 18.1195 34.7034 20.7756 34.7034 24.081V25.5566H12.9822V24.081C12.9822 20.7756 10.4442 18.1195 7.25681 17.8244V8.20328ZM34.6444 27.6815V35.0006H12.9822V27.6815H34.6444ZM10.9164 50.6422H8.73244V46.6285H10.9164V50.6422ZM38.9532 50.6422H36.7693V46.6285H38.9532V50.6422ZM45.2099 39.9587H45.1509C45.1509 42.0246 44.3835 44.5627 40.5469 44.5627H38.9532H36.7693H10.9164H8.73244H7.13876C5.07289 44.5627 2.53481 43.7953 2.53481 39.9587V24.081C2.53481 21.779 4.42361 19.8902 6.72559 19.8902C9.02756 19.8902 10.9164 21.779 10.9164 24.081V36.0631C10.9164 36.6533 11.3886 37.1255 11.9788 37.1255H35.7659C36.3561 37.1255 36.8283 36.6533 36.8283 36.0631V24.081C36.8283 21.779 38.7171 19.8902 41.0191 19.8902C43.3211 19.8902 45.2099 21.779 45.2099 24.081V39.9587V39.9587Z" fill="white"/>
</svg>
