<svg width="84" height="53" viewBox="0 0 84 53" fill="none" xmlns="http://www.w3.org/2000/svg">
<path d="M78.8072 18.4865H77.1747V11.1407C77.1747 7.53983 74.2447 4.61105 70.6451 4.61105C69.3864 4.61105 68.2092 4.96878 67.2119 5.58859C66.5443 2.69297 63.9439 0.530029 60.8506 0.530029H60.8487C57.2498 0.530029 54.3191 3.4588 54.3191 7.05967V18.4865H29.5103V7.05967C29.5103 3.4588 26.5796 0.530029 22.9787 0.530029C19.8854 0.530029 17.2851 2.69297 16.6174 5.58859C15.6201 4.96878 14.443 4.61105 13.1843 4.61105C9.58469 4.61105 6.65464 7.53983 6.65464 11.1407V18.4865H5.02223C2.32238 18.4865 0.125 20.6839 0.125 23.3838V29.9134C0.125 32.6133 2.32238 34.8106 5.02223 34.8106H6.65464V42.1565C6.65464 45.7573 9.58469 48.6861 13.1843 48.6861C14.443 48.6861 15.6201 48.3284 16.6174 47.7086C17.2851 50.6042 19.8854 52.7671 22.9787 52.7671H22.9807C26.5796 52.7671 29.5103 49.8384 29.5103 46.2375V34.8106H54.3191V46.2375C54.3191 49.8384 57.2498 52.7671 60.8506 52.7671C63.9439 52.7671 66.5443 50.6042 67.2119 47.7086C68.2092 48.3284 69.3864 48.6861 70.6451 48.6861C74.2447 48.6861 77.1747 45.7573 77.1747 42.1565V34.8106H78.8072C81.507 34.8106 83.7044 32.6133 83.7044 29.9134V23.3838C83.7044 20.6839 81.507 18.4865 78.8072 18.4865V18.4865ZM6.65464 31.5458H5.02223C4.12249 31.5458 3.38982 30.8131 3.38982 29.9134V23.3838C3.38982 22.484 4.12249 21.7514 5.02223 21.7514H6.65464V31.5458ZM16.4491 42.1565C16.4491 43.0575 16.0837 43.8737 15.4926 44.4648C14.9015 45.0559 14.0853 45.4213 13.1843 45.4213C11.3835 45.4213 9.91946 43.9572 9.91946 42.1565V11.1407C9.91946 9.33994 11.3835 7.87587 13.1843 7.87587C14.985 7.87587 16.4491 9.33994 16.4491 11.1407V42.1565ZM26.2455 46.2375C26.2455 48.0383 24.7795 49.5023 22.9807 49.5023H22.9787C21.1799 49.5023 19.7139 48.0383 19.7139 46.2375V7.05967C19.7139 5.25892 21.1799 3.79485 22.9807 3.79485C24.7795 3.79485 26.2455 5.25892 26.2455 7.05967V46.2375ZM54.3095 25.0162H42.8941C41.9931 25.0162 41.2617 25.7476 41.2617 26.6486C41.2617 27.5496 41.9931 28.281 42.8941 28.281H54.3095V31.5458H29.502V21.7514H54.3095V25.0162ZM64.1155 46.2375C64.1155 48.0383 62.6495 49.5023 60.8487 49.5023C59.0499 49.5023 57.5839 48.0383 57.5839 46.2375V26.7321C57.5826 26.7678 57.5794 26.8035 57.5743 26.838V26.4592C57.5794 26.4936 57.5826 26.5293 57.5839 26.5651V7.05967C57.5839 5.25892 59.0499 3.79485 60.8487 3.79485H60.8506C62.6495 3.79485 64.1155 5.25892 64.1155 7.05967V46.2375ZM73.9099 42.1565C73.9099 43.9572 72.4459 45.4213 70.6451 45.4213C68.8444 45.4213 67.3803 43.9572 67.3803 42.1565V11.1407C67.3803 9.33994 68.8444 7.87587 70.6451 7.87587C72.4459 7.87587 73.9099 9.33994 73.9099 11.1407V42.1565ZM80.4396 29.9134C80.4396 30.8131 79.7069 31.5458 78.8072 31.5458H77.1747V21.7514H78.8072C79.7069 21.7514 80.4396 22.484 80.4396 23.3838V29.9134Z" fill="white"/>
<path d="M36.3674 28.2811C35.4658 28.2811 34.7344 27.5503 34.7344 26.6486C34.7344 25.747 35.4645 25.0162 36.3661 25.0162H36.3674C37.2691 25.0162 37.9998 25.747 37.9998 26.6486C37.9998 27.5503 37.2691 28.2811 36.3674 28.2811Z" fill="white"/>
</svg>
