<svg width="22" height="20" viewBox="0 0 22 20" fill="none" xmlns="http://www.w3.org/2000/svg">
<path d="M15.9559 8.36718C15.9482 8.36718 15.9404 8.36718 15.9328 8.36722C14.0557 8.37514 12.4038 9.35013 11.4551 10.8478H5.73401V10.5786V9.58189C5.73401 9.18306 5.40953 8.85862 5.01074 8.85862H3.52296C3.12412 8.85862 2.79968 9.1831 2.79968 9.58189V10.5786V10.8478H2.56768C1.69846 10.8478 0.991344 10.1406 0.991344 9.27141V6.92923C0.991344 6.06002 1.69846 5.35286 2.56768 5.35286H17.4269C18.2961 5.35286 19.0032 6.06002 19.0032 6.92923V8.56058C19.0032 8.7297 19.1403 8.86678 19.3094 8.86678C19.4785 8.86678 19.6156 8.7297 19.6156 8.56058V6.92923C19.6156 5.72235 18.6337 4.74046 17.4268 4.74046H14.168V3.37442C14.168 2.02561 13.0706 0.928223 11.7218 0.928223H8.27269C6.92388 0.928223 5.82649 2.02561 5.82649 3.37442V4.74046H2.56768C1.36076 4.74046 0.378906 5.72235 0.378906 6.92923V16.2201C0.378906 17.427 1.36076 18.4088 2.56768 18.4088H11.8636C12.0327 18.4088 12.1698 18.2718 12.1698 18.1026C12.1698 17.9335 12.0327 17.7964 11.8636 17.7964H2.56768C1.69846 17.7964 0.991344 17.0893 0.991344 16.2201V10.7875C1.38981 11.2017 1.94895 11.4602 2.56768 11.4602H2.79968V11.7857C2.79968 12.5913 3.45448 13.2528 4.26685 13.2528C5.07248 13.2528 5.73401 12.598 5.73401 11.7857V11.4602H11.1219C10.8011 12.1559 10.6334 12.9192 10.6368 13.7081C10.6491 16.6332 13.0326 19.0043 15.9549 19.0042C15.9624 19.0042 15.9701 19.0042 15.9776 19.0041C18.917 18.9917 21.2861 16.603 21.2737 13.6632C21.2615 10.7676 18.9178 8.36718 15.9559 8.36718ZM12.2953 4.74046H7.6991V3.37442C7.6991 3.05815 7.95641 2.8008 8.27273 2.8008H11.7218C12.0381 2.8008 12.2954 3.0581 12.2954 3.37442V4.74046H12.2953ZM6.43893 3.37442C6.43893 2.36327 7.26158 1.54062 8.27273 1.54062H11.7218C12.733 1.54062 13.5556 2.36327 13.5556 3.37442V4.74046H12.9078V3.37442C12.9078 2.72044 12.3758 2.1884 11.7218 2.1884H8.27273C7.61875 2.1884 7.08671 2.72044 7.08671 3.37442V4.74046H6.43893V3.37442ZM3.52296 9.47101H5.01074C5.07187 9.47101 5.12162 9.52076 5.12162 9.58189V10.2724H3.41208V9.58189C3.41208 9.52072 3.46183 9.47101 3.52296 9.47101ZM3.41208 11.7857V10.8848H5.12158V11.7857C5.12158 12.257 4.73812 12.6404 4.26681 12.6404C3.79549 12.6404 3.41208 12.257 3.41208 11.7857ZM15.9751 18.3917C15.9683 18.3918 15.9617 18.3918 15.9549 18.3918C13.3693 18.3917 11.2601 16.2937 11.2492 13.7055C11.2382 11.1095 13.3283 8.99064 15.9354 8.97962C15.9422 8.97958 15.949 8.97958 15.9558 8.97958C18.5114 8.97958 20.6502 11.0389 20.6613 13.6658C20.6722 16.2667 18.5763 18.3808 15.9751 18.3917Z" fill="white"/>
</svg>
