<svg width="22" height="20" viewBox="0 0 22 20" fill="none" xmlns="http://www.w3.org/2000/svg">
<path d="M21.0306 15.5336C21.0307 14.7641 20.4435 14.1218 19.677 14.053C18.9107 13.9842 18.2185 14.5119 18.0819 15.2693C17.945 16.0264 18.4088 16.7627 19.1509 16.9665V19.2105H17.5336V4.30447C17.5336 4.08714 17.3574 3.91106 17.1402 3.91106H14.9108V1.32176C14.9108 1.10456 14.7346 0.928345 14.5174 0.928345H6.6491C6.4319 0.928345 6.25569 1.10456 6.25569 1.32176V3.91106H4.02634C3.80914 3.91106 3.63292 4.08714 3.63292 4.30447V19.2105H2.01555V16.9665C2.73299 16.7696 3.19443 16.0722 3.09498 15.3348C2.99567 14.5973 2.36621 14.0471 1.62214 14.0471C0.877929 14.0471 0.248602 14.5973 0.149156 15.3348C0.049846 16.0722 0.511152 16.7696 1.22872 16.9665V19.2105H0.52932C0.312122 19.2105 0.135905 19.3866 0.135905 19.6039C0.135905 19.8211 0.312122 19.9973 0.52932 19.9973H20.6372C20.8544 19.9973 21.0306 19.8211 21.0306 19.6039C21.0306 19.3866 20.8544 19.2105 20.6372 19.2105H19.9378V16.9665C20.5827 16.7887 21.0298 16.2025 21.0306 15.5336ZM0.922734 15.5336C0.922734 15.1473 1.23583 14.8342 1.62214 14.8342C2.00831 14.8342 2.32154 15.1473 2.32154 15.5336C2.32154 15.9198 2.00831 16.233 1.62214 16.233C1.2361 16.2324 0.923281 15.9196 0.922734 15.5336ZM7.04252 1.71517H14.124V3.91106H7.04252V1.71517ZM4.41975 4.69788H16.7467V19.2105H14.4737V18.1264C14.4737 17.9092 14.2975 17.733 14.0803 17.733H13.3809V13.9882C13.3809 13.7709 13.2046 13.5948 12.9874 13.5948H8.17905C7.96185 13.5948 7.78563 13.7709 7.78563 13.9882V17.733H7.08623C6.86903 17.733 6.69281 17.9091 6.69281 18.1264V19.2105H4.41975V4.69788ZM12.594 17.733H10.9767V14.3816H12.594V17.733ZM10.1898 17.733H8.57246V14.3816H10.1898V17.733ZM13.6869 18.5198V19.2105H7.47964V18.5198H13.6869ZM18.845 15.5336C18.845 15.1473 19.158 14.8342 19.5444 14.8342C19.9305 14.8342 20.2438 15.1473 20.2438 15.5336C20.2438 15.9198 19.9305 16.233 19.5444 16.233C19.1583 16.2324 18.8455 15.9196 18.845 15.5336Z" fill="white"/>
</svg>
