<svg width="451" height="338" viewBox="0 0 451 338" fill="none" xmlns="http://www.w3.org/2000/svg">
<g clip-path="url(#clip0_122_191)">
<path opacity="0.4" fill-rule="evenodd" clip-rule="evenodd" d="M69.1001 215.7C71.7001 223.5 86.6001 222.1 93.5001 221C92.5001 219.2 91.6001 217.3 90.9001 215.4C85.0001 215.5 77.3001 214.5 78.2001 208.4C79.6001 198.7 103.7 163.1 135.7 139.5C167.7 115.9 136.9 98.6999 225 77.5999C242.1 73.4999 259.6 69.8999 277.2 69.1999C283.5 68.8999 311.9 69.4999 303.1 81.6999C301.1 84.3999 296 88.0999 293.1 86.3999C292.9 86.1999 292.9 86.1999 293.1 86.3999C296.4 88.7999 298.5 91.9999 298.5 91.9999C298.5 91.9999 306.4 86.6999 308.5 83.9999C311.3 80.4999 314 77.5999 313.1 72.9999C310.9 62.1999 292.4 62.9999 283.6 62.7999C268.7 62.4999 253.7 63.9999 238.9 65.7999C200.3 70.4999 180.8 77.3999 157.3 91.8999C133.8 106.4 134.6 120.6 117.9 133C101.3 145.5 84.5001 183 84.5001 183C84.5001 183 65.7001 205.5 69.1001 215.7Z" fill="url(#paint0_radial_122_191)"/>
<path opacity="0.4" d="M42.1002 120.7C42.1002 120.7 82.4002 44.6999 127.1 41.3999C171.8 38.0999 181.8 46.0999 207.1 34.0999C232.4 22.0999 273.8 6.79993 291.8 16.0999C301.2 20.9999 308.7 29.1999 313.4 38.6999C320.8 53.3999 314.7 67.3999 318.6 82.3999C322.2 96.0999 329.9 111.3 342.9 118.3C355.1 124.9 370.6 122.5 382.4 129.9C395.9 138.3 396.4 157 391 170.1C384.9 185.1 374.4 198.6 362.8 209.7C350.8 221.1 334.4 226.7 323.1 238.1C314 247.3 309.2 259.9 303.3 271.1C294.5 288 277.3 302.6 258.3 307.1C236.6 312.3 255.6 291.2 244.3 285.9C220.9 274.7 189.8 292.3 165.4 283.6C176.8 296.1 197.1 292.9 211.7 298.5C221.7 302.3 222.3 307.9 228.7 314.8C235.8 322.4 244.4 321.6 254.5 320.1C275.5 316.9 291 303.7 306 288.9C322.8 272.4 331.6 249.1 348.2 232.3C356.3 224.1 366.2 220.9 375.2 214.2C387 205.4 397.6 193.2 407 182C414.9 172.7 452.4 129.4 434.2 116.2C421.4 106.9 405.6 114.3 391.6 115.6C377.7 116.9 355 116.4 343.5 107.7C315.8 86.6999 336.5 53.4999 328.1 26.2999C323 9.69989 307 2.59991 290.9 0.899902C240.9 -4.40009 224.2 21.5999 188.2 30.1999C152.2 38.8999 114.9 26.8999 77.5002 50.8999C40.1002 74.8999 28.2002 105.6 28.2002 105.6L42.1002 120.7Z" fill="url(#paint1_radial_122_191)"/>
<path opacity="0.4" d="M176.4 284.7C173.7 284 143.7 284 123.1 296.7C102.5 309.4 69.7002 333.4 35.7002 321.4C1.7002 309.4 13.0002 286.7 24.4002 272.1C35.8002 257.5 86.4002 247.4 99.1002 235.4C111.8 223.4 129.1 199.4 155.8 195.4C182.5 191.4 261.1 187.3 281.8 181.7C302.5 176.1 344.5 160.8 350.5 171.4C356.5 182.1 321.2 204.7 321.2 204.7L322.5 197.4C322.5 197.4 347.2 184.1 337.8 178.7C328.4 173.3 294 180.9 280.5 188C266.9 195.1 225.8 206.7 206.5 204.7C187.2 202.7 156.5 200.7 139.2 220C121.9 239.3 99.2002 260.7 72.5002 267.3C45.8002 273.9 29.3002 294.2 45.2002 306.8C61.1002 319.3 94.5002 312.7 110.5 299.3C126.5 285.9 157.8 282 157.8 282L176.4 284.7Z" fill="url(#paint2_radial_122_191)"/>
<path opacity="0.4" fill-rule="evenodd" clip-rule="evenodd" d="M52.7001 223.4C65.8001 226.1 87.0001 222.1 93.5001 221.1C92.5001 219.3 91.6001 217.4 90.9001 215.5C85.0001 215.6 77.3001 214.6 78.2001 208.5C79.6001 198.8 116.5 169.3 148.5 145.7C180.5 122.1 136.9 98.7999 225 77.6999C242.1 73.5999 259.6 69.9999 277.2 69.2999C283.5 68.9999 311.9 69.5999 303.1 81.7999C301.1 84.4999 296 88.1999 293.1 86.4999C292.9 86.2999 292.9 86.2999 293.1 86.4999C296.4 88.8999 298.5 92.0999 298.5 92.0999C298.5 92.0999 306.4 86.7999 308.5 84.0999C311.3 80.5999 314 77.6999 313.1 73.0999C310.9 62.2999 292.4 63.0999 283.6 62.8999C268.7 62.5999 252.8 57.2999 238 59.0999C199.4 63.7999 180.8 77.4999 157.3 91.8999C142.2 101.2 133.9 116.2 122.2 128.9C109.3 142.9 93.1001 153.9 80.5001 168.1C72.9001 176.6 64.8001 184.3 56.7001 192.1C51.6001 197.1 44.1001 204 42.5001 211.1C40.7001 218.3 45.4001 221.9 52.7001 223.4Z" fill="url(#paint3_radial_122_191)"/>
<path opacity="0.4" d="M248.2 291.3C248.5 289.4 248.5 287.6 247.2 285.7C245.1 282.4 241.2 281.2 237.8 279.9C237.4 279.8 228.2 275.9 230.4 274.4C224.8 278.3 218.9 282.5 213.8 287C219.5 289.8 225.5 288.9 231.4 290.8C239.6 293.5 237.8 295 241.4 301C244.7 306.6 243.6 310.1 252.4 311C256.5 311.4 264.2 308.5 268.4 307C281.2 302.3 296.7 290.6 305.2 280C310.9 272.9 312.6 263.8 317.4 256.3C329.8 236.8 348.3 228 366.6 215.5C383.6 204 399.1 190.3 413.1 175.4C420.9 167.1 464 121.7 445.9 108.6C433.1 99.2999 406.9 109.8 392.9 111.1C379 112.4 359.4 111.3 347.9 102.6C320.2 81.5999 336.7 53.3999 328.3 26.1999C323.2 9.59991 307.2 2.49994 291.1 0.799927C241.1 -4.50006 224.4 21.4999 188.4 30.0999C152.4 38.8 119.1 29.3999 81.7001 53.3999C44.3001 77.3999 37.7001 111.4 37.7001 111.4L42.0002 120.7C42.0002 120.7 82.3001 44.6999 127 41.3999C151.4 39.5999 175 52.0999 199.4 47.6999C233.5 41.5999 278.5 17.2999 305.4 51.9999C308.8 56.3999 313 60.7999 314.9 65.9999C317.6 73.4999 316.5 82.0999 319.6 89.6999C323.9 100.4 332.7 112.7 342.9 118.2C355.1 124.8 370.6 122.4 382.4 129.8C395.9 138.2 396.4 156.9 391 170C379.9 197.4 358.9 214.8 333.8 227C319.9 233.8 310.4 251.6 303.4 264.9C299.1 273.1 294.1 280.6 287.9 287.4C280.2 295.9 274.4 299.1 263.7 302.1C257.5 303.9 245.5 307.5 247.2 295.9C247.5 294.4 248 292.8 248.2 291.3Z" fill="url(#paint4_radial_122_191)"/>
<path opacity="0.4" d="M176.4 284.7C173.7 284 143.7 284 123.1 296.7C102.5 309.4 71.4001 344.6 36.4001 336C-20.5999 322 2.40015 289 18.4001 275.5C32.6002 263.5 86.4001 247.3 99.1001 235.3C111.8 223.3 129.1 199.3 155.8 195.3C182.5 191.3 271.3 174.6 292 169C312.7 163.4 351.5 154.8 357.5 165.5C363.5 176.2 321.2 204.7 321.2 204.7L322.5 197.4C322.5 197.4 347.2 184.1 337.8 178.7C328.4 173.3 294 180.9 280.5 188C266.9 195.1 225.8 206.7 206.5 204.7C187.2 202.7 162.8 215.2 145.5 234.5C128.2 253.8 108.2 261.3 81.5002 268C54.8001 274.7 29.3001 294.2 45.2001 306.8C61.1001 319.4 96.4001 302.7 112.4 289.4C128.4 276.1 157.7 282.1 157.7 282.1L176.4 284.7Z" fill="url(#paint5_radial_122_191)"/>
</g>
<defs>
<radialGradient id="paint0_radial_122_191" cx="0" cy="0" r="1" gradientUnits="userSpaceOnUse" gradientTransform="translate(594.414 166.419) rotate(153.521) scale(553.004 487.3)">
<stop stop-color="#FF5731"/>
<stop offset="0.3795" stop-color="#BA005E"/>
<stop offset="0.7072" stop-color="#621276"/>
<stop offset="0.9972" stop-color="#8160FF"/>
</radialGradient>
<radialGradient id="paint1_radial_122_191" cx="0" cy="0" r="1" gradientUnits="userSpaceOnUse" gradientTransform="translate(526.98 446.103) rotate(180) scale(571.924)">
<stop stop-color="#FF5731"/>
<stop offset="0.3795" stop-color="#BA005E"/>
<stop offset="0.7072" stop-color="#621276"/>
<stop offset="0.9972" stop-color="#8160FF"/>
</radialGradient>
<radialGradient id="paint2_radial_122_191" cx="0" cy="0" r="1" gradientUnits="userSpaceOnUse" gradientTransform="translate(525.723 356.065) rotate(180) scale(522.879)">
<stop stop-color="#FF5731"/>
<stop offset="0.3795" stop-color="#BA005E"/>
<stop offset="0.7072" stop-color="#621276"/>
<stop offset="0.9972" stop-color="#8160FF"/>
</radialGradient>
<radialGradient id="paint3_radial_122_191" cx="0" cy="0" r="1" gradientUnits="userSpaceOnUse" gradientTransform="translate(612.052 161.445) rotate(153.521) scale(590.839 520.64)">
<stop stop-color="#FF5731"/>
<stop offset="0.3795" stop-color="#BA005E"/>
<stop offset="0.7072" stop-color="#621276"/>
<stop offset="0.9972" stop-color="#8160FF"/>
</radialGradient>
<radialGradient id="paint4_radial_122_191" cx="0" cy="0" r="1" gradientUnits="userSpaceOnUse" gradientTransform="translate(538.304 432.332) rotate(180) scale(565.43)">
<stop stop-color="#FF5731"/>
<stop offset="0.3795" stop-color="#BA005E"/>
<stop offset="0.7072" stop-color="#621276"/>
<stop offset="0.9972" stop-color="#8160FF"/>
</radialGradient>
<radialGradient id="paint5_radial_122_191" cx="0" cy="0" r="1" gradientUnits="userSpaceOnUse" gradientTransform="translate(542.938 372.797) rotate(180) scale(558.128)">
<stop stop-color="#FF5731"/>
<stop offset="0.3795" stop-color="#BA005E"/>
<stop offset="0.7072" stop-color="#621276"/>
<stop offset="0.9972" stop-color="#8160FF"/>
</radialGradient>
<clipPath id="clip0_122_191">
<rect width="450.3" height="337.4" fill="white" transform="translate(450.3 337.4) rotate(-180)"/>
</clipPath>
</defs>
</svg>
