<svg width="78" height="83" viewBox="0 0 78 83" fill="none" xmlns="http://www.w3.org/2000/svg">
<path d="M41.3718 43.0092C36.107 45.2477 29.9717 45.2684 24.6241 43.1542C21.9503 42.0972 19.463 40.5219 17.3696 38.5113C15.2761 36.5215 13.5557 34.0757 12.3743 31.4019C11.1928 28.7281 10.5088 25.8055 10.4466 22.8415C10.3845 19.8775 10.9026 16.9135 12.0012 14.1361C13.0997 11.3793 14.7579 8.80914 16.8514 6.67423C18.9656 4.56005 21.515 2.86041 24.2717 1.69969C27.0492 0.559685 30.0339 -0.0206793 33.0394 4.79819e-05C36.0448 0.0207753 39.0088 0.663321 41.7448 1.84478C44.4808 3.02623 46.9474 4.76732 48.9994 6.90223C51.0514 9.03714 52.6267 11.5866 53.6838 14.3019C54.7408 17.0379 55.2383 19.9604 55.1761 22.8622C55.1139 25.7641 54.4714 28.6244 53.3314 31.2568C51.0514 36.563 46.6779 40.8742 41.3718 43.0092ZM41.3718 43.0092C44.0041 41.9106 46.4085 40.2732 48.419 38.2626C50.4296 36.2313 51.9841 33.7855 53.0412 31.1532C54.0776 28.5208 54.575 25.6812 54.5128 22.8622C54.4507 20.0433 53.8081 17.2659 52.6681 14.7164C51.5281 12.167 49.9114 9.86623 47.9008 7.98005C45.911 6.07314 43.5481 4.58078 40.9987 3.58587C35.9205 1.57532 30.0961 1.59605 25.0801 3.73096C20.0434 5.78296 15.8979 9.86623 13.7216 14.8822C11.5037 19.8982 11.3379 25.8055 13.3485 31.0081C14.3434 33.599 15.8565 36.0241 17.8048 38.0553C19.7532 40.0866 22.0954 41.7448 24.707 42.8641C27.3187 43.9833 30.1376 44.6052 32.9979 44.6259C35.879 44.6466 38.7187 44.087 41.3718 43.0092Z" fill="url(#paint0_linear_1049_106)"/>
<path d="M56.8342 10.5294C58.7619 9.96977 60.731 9.59668 62.7415 9.32723C64.7313 9.0785 66.7626 8.95413 68.8146 9.05777C69.851 9.11995 70.8666 9.24432 71.903 9.47232C72.9393 9.70032 73.9757 10.0527 74.9706 10.6538C75.4681 10.944 75.9448 11.3378 76.3593 11.7938C76.7739 12.2498 77.1055 12.8094 77.3335 13.4105C77.5615 14.0116 77.6237 14.6334 77.6444 15.2345C77.6444 15.5247 77.6237 15.8356 77.5822 16.1258C77.5615 16.416 77.4993 16.7061 77.4164 16.9756C77.147 18.0741 76.691 19.069 76.1935 19.981C75.6753 20.9138 75.1157 21.7636 74.4939 22.5927C73.2502 24.2301 71.8822 25.7432 70.452 27.1527C67.571 29.9716 64.4411 32.4796 61.1248 34.7389C63.8608 31.7956 66.6382 28.956 69.2084 25.992C70.4935 24.4996 71.7371 22.9865 72.815 21.3905C73.1051 20.9967 73.3331 20.5821 73.6026 20.1883C73.8306 19.7738 74.1001 19.38 74.3073 18.9654C74.7426 18.1363 75.1157 17.2865 75.3022 16.4574C75.5095 15.6283 75.551 14.7992 75.3022 14.136C75.095 13.452 74.5768 12.8716 73.8721 12.4156C73.1673 11.9596 72.3175 11.6072 71.4262 11.3585C70.535 11.1098 69.5815 10.9232 68.6281 10.7989C66.7211 10.5294 64.752 10.4465 62.783 10.4258C60.8346 10.3636 58.8448 10.4465 56.8342 10.5294Z" fill="url(#paint1_linear_1049_106)"/>
<path d="M9.57594 35.8997C8.14575 37.5164 6.7363 39.1953 5.43048 40.9157C4.78793 41.7862 4.16612 42.6568 3.58575 43.5688C3.00539 44.46 2.46648 45.3928 2.03121 46.3462C1.59593 47.2997 1.24357 48.2946 1.13993 49.2895C1.09848 49.7869 1.09848 50.2637 1.20211 50.7197C1.32648 51.1549 1.51302 51.5695 1.8032 51.9218C2.38357 52.6266 3.27484 53.0826 4.2283 53.3935C5.18175 53.7044 6.21812 53.8702 7.25448 53.9738C9.34794 54.1811 11.4828 54.1189 13.6178 53.9946C15.7527 53.8495 17.8876 53.6215 20.0225 53.352C24.2923 52.8131 28.5621 52.0669 32.8319 51.3415C37.1018 50.616 41.3716 49.8284 45.6829 49.1858C47.8385 48.8749 49.9941 48.564 52.1912 48.3568C53.2898 48.2531 54.3883 48.1702 55.5076 48.108C56.0465 48.0873 56.6891 48.0873 57.2487 48.1288C57.8291 48.1702 58.4301 48.2531 59.0105 48.3982C59.5909 48.5433 60.1505 48.7091 60.7516 48.9786C61.332 49.248 61.8501 49.5589 62.3269 49.932C62.8036 50.3051 63.2389 50.6782 63.6949 51.1757C63.8192 51.3415 63.9021 51.4451 63.9851 51.5695C64.068 51.6938 64.1509 51.8182 64.2338 51.9426C64.3996 52.1913 64.5447 52.44 64.6898 52.7509C64.8556 53.0826 64.9385 53.3935 65.0214 53.6837C65.1043 53.9738 65.1665 54.264 65.208 54.5542C65.3116 55.1346 65.3738 55.6942 65.436 56.2538C65.4567 56.5233 65.4774 56.8342 65.4981 57.0829C65.5189 57.2488 65.5396 57.4353 65.6225 57.6011C65.7676 57.9535 66.0163 58.3473 66.3065 58.6997C66.9283 59.4044 67.7574 60.0469 68.6072 60.5444C68.8145 60.6688 69.0425 60.7724 69.2912 60.8968C69.54 61.0211 69.8094 61.1662 70.0581 61.332C70.5556 61.6637 71.0945 62.0368 71.5091 62.6793C71.7163 62.9902 71.8614 63.4048 71.8614 63.8608C71.8614 64.296 71.7163 64.7106 71.5298 65.0215C71.3432 65.3531 71.1152 65.6019 70.8872 65.8299C70.7629 65.9335 70.6385 66.0579 70.5349 66.1408L70.3691 66.2651L70.224 66.3688C70.0374 66.5139 69.9131 66.6589 69.8509 66.7833C69.768 66.9077 69.7472 66.9906 69.768 67.1149C69.7887 67.3637 70.0167 67.7575 70.3691 68.0684L70.452 68.1513L70.4934 68.2342C70.5556 68.3586 70.6385 68.5244 70.6592 68.7317C70.68 68.9389 70.6385 69.1462 70.5763 69.312C70.4312 69.6437 70.2447 69.8302 70.0581 69.9753C69.7058 70.2655 69.3534 70.452 69.0011 70.6179L68.9596 70.6386L69.0011 70.6179C69.0632 70.5764 69.1047 70.5349 69.1669 70.4728C69.2498 70.3691 69.2912 70.224 69.2912 70.0789C69.2912 69.9339 69.2083 69.768 69.0632 69.6437C69.0011 69.5815 68.8974 69.5608 68.856 69.54H68.8767H68.8974L68.9596 69.5608L69.2291 69.6437C69.4156 69.7059 69.6021 69.768 69.7887 69.8302C69.9752 69.9131 70.1618 69.996 70.3691 70.1204C70.5556 70.2448 70.8043 70.4313 70.9494 70.7837C71.0323 70.9495 71.0531 71.1775 71.0116 71.364C70.9701 71.5506 70.908 71.6957 70.8251 71.82C70.7007 72.0066 70.5971 72.1309 70.4934 72.276C70.2861 72.5662 70.1411 72.7735 70.0996 72.9808C70.0581 73.188 70.0996 73.4575 70.2032 73.7477C70.3069 74.0379 70.452 74.328 70.6178 74.6804C70.7629 75.012 70.9287 75.3437 71.0323 75.7375C71.1567 76.1106 71.1981 76.5666 71.1152 77.0019C70.8872 77.8724 70.2654 78.4528 69.5814 78.8259C69.2291 79.0124 68.856 79.1368 68.5036 79.199L67.4465 79.4062L65.3531 79.8H65.3323C64.9385 79.8415 64.5447 79.9244 64.1509 80.0488C63.7571 80.1731 63.384 80.3182 63.0316 80.5255C62.7 80.7328 62.3891 81.023 62.2025 81.3753C62.016 81.7277 61.9952 82.1629 62.0781 82.5775C61.9538 82.1837 61.9331 81.7277 62.0989 81.3339C62.2647 80.94 62.5549 80.6084 62.9072 80.339C63.2596 80.0902 63.6327 79.883 64.0265 79.7379C64.4203 79.572 64.8349 79.4684 65.2494 79.3855H65.2287L67.2807 78.8466L68.2963 78.5564C68.628 78.4735 68.9181 78.3491 69.1876 78.1833C69.7265 77.8724 70.1618 77.3335 70.2447 76.7946C70.3276 76.2764 70.0374 75.6753 69.7058 75.0742C69.54 74.784 69.3534 74.4524 69.1876 74.0793C69.0425 73.7062 68.8974 73.2709 68.9803 72.7735C69.0425 72.276 69.312 71.8822 69.5192 71.592C69.6229 71.4469 69.7265 71.2811 69.7887 71.1775C69.8094 71.136 69.8094 71.136 69.8094 71.136C69.8094 71.136 69.8094 71.1775 69.8094 71.1982C69.8301 71.2189 69.768 71.1568 69.6643 71.0946C69.5607 71.0324 69.4363 70.9702 69.2912 70.9288C69.1461 70.8873 69.0011 70.8251 68.8352 70.7837L68.5865 70.7215L68.5243 70.7008H68.4829H68.4621C68.4 70.68 68.2963 70.6386 68.2341 70.5971C68.0683 70.4728 67.9854 70.2862 67.9647 70.1204C67.944 69.9546 68.0061 69.7888 68.1098 69.6644C68.1512 69.6022 68.2134 69.54 68.2963 69.4986L68.3585 69.4571L68.3792 69.4364C68.6694 69.2913 68.9389 69.1255 69.1254 68.9389C69.2083 68.856 69.2705 68.7731 69.2498 68.7731C69.2498 68.7731 69.2291 68.8146 69.2498 68.8353C69.2498 68.856 69.2498 68.8768 69.2291 68.8353L69.3534 68.9804C69.1254 68.7731 68.9181 68.5451 68.7109 68.2549C68.5243 67.9855 68.3378 67.6331 68.2756 67.2186C68.2134 66.804 68.2963 66.3273 68.5036 65.9957C68.6901 65.6433 68.9596 65.3739 69.1876 65.1666L69.3534 65.0215L69.4985 64.8971C69.6021 64.8142 69.6643 64.7313 69.7472 64.6691C69.8923 64.5033 70.0374 64.3582 70.0996 64.1924C70.1825 64.0473 70.2032 63.9229 70.2032 63.8193C70.2032 63.7157 70.1618 63.612 70.0581 63.4669C69.8716 63.1975 69.4985 62.9073 69.1047 62.6586C68.8974 62.5342 68.6901 62.4306 68.4414 62.3062C68.2134 62.2026 67.944 62.0782 67.6745 61.9331C66.6381 61.3528 65.7054 60.7102 64.8556 59.7982C64.4411 59.3422 64.0472 58.824 63.7985 58.1815C63.6741 57.8499 63.5705 57.4975 63.5498 57.1244L63.4876 56.3368C63.4254 55.8186 63.3632 55.3211 63.2596 54.8237C63.156 54.3469 63.0316 53.8288 62.8658 53.5179C62.7621 53.3313 62.6378 53.124 62.4927 52.9168C62.4305 52.8131 62.3476 52.7095 62.2854 52.6058C62.2232 52.5022 62.1403 52.3986 62.0989 52.3571C61.8294 52.0462 61.4356 51.7146 61.0418 51.4451C60.648 51.1549 60.2334 50.9269 59.8396 50.7404C59.4251 50.5746 58.9483 50.4295 58.4716 50.3258C57.9949 50.2222 57.4974 50.16 57.0207 50.1186C56.5232 50.0771 56.0672 50.0771 55.5283 50.1186C54.4712 50.16 53.4141 50.2637 52.357 50.3673C50.2221 50.5953 48.0872 50.9062 45.973 51.2378C41.7032 51.9011 37.4334 52.6266 33.1429 53.3313C28.8523 54.036 24.541 54.6578 20.209 55.1346C18.0327 55.3626 15.8563 55.5491 13.6592 55.6113C11.4621 55.6735 9.2443 55.6528 7.02648 55.3833C5.90721 55.2382 4.80866 55.0102 3.71011 54.5957C2.6323 54.2018 1.53375 53.6008 0.746114 52.5851C0.352295 52.0877 0.103568 51.4866 -0.0207958 50.8648C-0.145159 50.2429 -0.124432 49.6418 -0.041523 49.0615C0.145022 47.9008 0.601023 46.8437 1.1192 45.8488C2.1763 43.8797 3.52357 42.1386 4.95375 40.5011C6.48757 38.9258 8.02139 37.392 9.57594 35.8997Z" fill="url(#paint2_linear_1049_106)"/>
<defs>
<linearGradient id="paint0_linear_1049_106" x1="32.8115" y1="-0.000488281" x2="32.8115" y2="44.7146" gradientUnits="userSpaceOnUse">
<stop stop-color="#0066FF"/>
<stop offset="0.364583" stop-color="#17E0F1"/>
<stop offset="1" stop-color="#FEC8E4"/>
</linearGradient>
<linearGradient id="paint1_linear_1049_106" x1="67.2393" y1="9.02112" x2="67.2393" y2="34.7389" gradientUnits="userSpaceOnUse">
<stop stop-color="#0066FF"/>
<stop offset="0.364583" stop-color="#17E0F1"/>
<stop offset="1" stop-color="#FEC8E4"/>
</linearGradient>
<linearGradient id="paint2_linear_1049_106" x1="35.8763" y1="35.8997" x2="35.8763" y2="82.5775" gradientUnits="userSpaceOnUse">
<stop stop-color="#0066FF"/>
<stop offset="0.364583" stop-color="#17E0F1"/>
<stop offset="1" stop-color="#FEC8E4"/>
</linearGradient>
</defs>
</svg>
