<svg width="72" height="92" viewBox="0 0 72 92" fill="none" xmlns="http://www.w3.org/2000/svg">
<g clip-path="url(#clip0_122_427)">
<path d="M44.5001 50.4C44.5001 50.4 67.7001 51.4 63.4001 91.6C63.4001 91.6 22.8001 79.9 33.0001 58C34.5001 54.8 39.4001 49.8 44.5001 50.4Z" fill="url(#paint0_radial_122_427)"/>
<path d="M43.1001 51.1C43.1001 51.1 60.3001 51.9 57.1001 83.5C57.1001 83.5 26.4002 74.2 33.9002 56.9C35.0002 54.4 39.2001 50.6 43.1001 51.1Z" fill="url(#paint1_radial_122_427)"/>
<path d="M40.4 52.2C40.4 52.2 50 52.6 48.2 70.2C48.2 70.2 31.1 65 35.3 55.4C35.9 54 38.2 51.9 40.4 52.2Z" fill="url(#paint2_radial_122_427)"/>
<path d="M52.4 49.3C48.7 41 36.1 23 50.9 24.3C56.2 24.7 61 28.3 64.6 32.9C75.9 47.4 69.9 57.5 69.9 57.5C69.9 57.5 68.6 61.6 62 52.6C55.4 43.5 52.4 49.3 52.4 49.3Z" fill="url(#paint3_radial_122_427)"/>
<path d="M48.7 32.2999C49 32.1999 49.3 32.2 49.7 32.2C50.6 32.3 51.6 32.8 52.5 33.2C53.6 33.8 57 35.5 57.7 36.7C57.7 36.6 57.5 36.5 57.5 36.5C61 39.5 64.5 43.6 66.3 48C67.1 49.9 68.8 53.4 67.3 55C65.6 56.7999 62.9 52.7 61.8 51.2C56.5 43.9 54.1 48.5 54.1 48.5C52.3 44.6 48.1 38 47.4 33.4C48 32.9 48.2 32.4999 48.7 32.2999Z" fill="url(#paint4_radial_122_427)"/>
<path d="M45.6001 35.6C45.6001 35.6 45.6001 35.7 45.7001 35.7C47.2001 38.8 49.6001 41.7 52.4001 43.2C54.3001 44.2 56.3001 45.2 58.2001 45.9C59.8001 46.5 61.6001 46.9 63.2001 46.9C64.5001 46.8 65.9001 46.9 67.0001 46.5C68.5001 45.9 69.7001 45.5 70.7001 44.8C72.7001 52.7 69.8001 57.5 69.8001 57.5C69.8001 57.5 68.5001 61.6 61.9001 52.6C55.3001 43.5 52.3001 49.3 52.3001 49.3C50.8001 45.7 47.6001 40.4 45.6001 35.6Z" fill="url(#paint5_radial_122_427)"/>
<path d="M50.2001 29.9C51.1001 30.1 52.3001 30.2 52.8001 30.1C56.0001 29.6 54.7001 26.7 51.6001 27C50.6001 27.1 49.7001 27.5 49.3001 28C48.3001 29.1 49.1001 29.6 50.2001 29.9Z" fill="url(#paint6_radial_122_427)"/>
<path d="M56.4 29.8C56.6 30.4 57.3 31.2 57.8 31.5C59 32.5 60.6 32.2 59.5 30.4C59.1 29.6 57.8 28.6 57 28.8C56.3 29 56.2 29.4 56.4 29.8Z" fill="url(#paint7_radial_122_427)"/>
<path d="M28.4001 64.7C22.4001 57.9 11.3 39 6.20004 52.9C4.40005 57.9 5.60005 63.7 8.40005 68.9C16.9 85.3 28.6 83.9 28.6 83.9C28.6 83.9 32.9001 84.5 27.4001 74.7C22 65 28.4001 64.7 28.4001 64.7Z" fill="url(#paint8_radial_122_427)"/>
<path d="M14.6 54.3C14.4 54.5 14.3 54.8 14.1 55.2C13.8 56.1 13.8 57.2 13.9 58.2C14 59.5 14.1 63.3 14.9 64.3C14.9 64.2 14.8 64.1 14.8 64C16 68.4 18.3 73.4 21.6 76.8C23 78.3 25.5 81.3 27.5 80.6C29.8 79.8 27.2 75.6 26.4 74C22 66.1 27.2 65.9 27.2 65.9C24.4 62.7 20.1 56.1 16.2 53.5C15.4 53.8 14.9 53.9 14.6 54.3Z" fill="url(#paint9_radial_122_427)"/>
<path d="M18.8 52.8C18.8 52.8 18.8 52.9 18.9001 52.9C21.1 55.5 22.7001 58.9 22.9001 62.1C23.1 64.3 23.1 66.4 22.9001 68.5C22.7001 70.2 22.4 72 21.7 73.4C21.1 74.5 20.6 75.8 19.7 76.7C18.5 77.8 17.7 78.7 16.6 79.4C22.9 84.5 28.6 83.9 28.6 83.9C28.6 83.9 32.9001 84.5 27.4001 74.7C21.9001 64.9 28.4001 64.6 28.4001 64.6C25.9001 61.7 22.4 56.6 18.8 52.8Z" fill="url(#paint10_radial_122_427)"/>
<path d="M11.8 54.6C11.6 55.5 11.2 56.6 10.9 57C9.10005 59.7 7.00004 57.3 8.60004 54.6C9.10004 53.8 9.80005 53.1 10.5 52.9C11.7 52.5 12 53.5 11.8 54.6Z" fill="url(#paint11_radial_122_427)"/>
<path d="M9.09997 60.2C9.59997 60.7 9.89997 61.6 10.1 62.2C10.5 63.7 9.59998 65.1 8.39998 63.3C7.89998 62.6 7.39997 61 7.99997 60.3C8.29997 59.8 8.79997 59.9 9.09997 60.2Z" fill="url(#paint12_radial_122_427)"/>
<path d="M3.90004 0.699967C4.90004 -3.33786e-05 6.30004 -0.100033 7.80004 0.0999666C21.9 1.69997 35 10.4 43.2 23.2C46.3 28 49.3 33 51.6 38.2C53.8 43.1 54.5 47 52.7 51.8C49.5 60 39.3 66.5 30.5 66C25.4 65.7 22.2 63.4 18.6 59.4C14.8 55.1 11.5 50.3 8.40004 45.5C5.70004 41.3 3.60004 36.8 2.10004 32.2C-0.0999641 25.1 -0.59996 17.7 0.500038 10.7C0.90004 7.99997 1.50004 5.09997 2.40004 2.59997C2.80004 1.69997 3.20004 1.09997 3.90004 0.699967Z" fill="url(#paint13_radial_122_427)"/>
<path opacity="0.5" d="M2.2001 32.0999C2.0001 31.4999 1.80009 30.8 1.7001 30.2C4.30009 34.8 7.3001 39.2 10.6001 43.2C15.9001 49.6 22.0001 56 30.4001 57.9C38.9001 59.7 47.2001 56.4 52.7001 49.9C52.8001 49.8 52.9001 49.6999 52.9001 49.5999C53.0001 49.4999 53.1001 49.3 53.3001 49.2C53.4001 49 53.5001 48.9 53.6001 48.7C53.4001 49.7 53.2001 50.6999 52.8001 51.7999C49.5001 60 39.3001 66.5 30.5001 66C25.4001 65.7 22.2001 63.4 18.6001 59.4C14.8001 55.1 11.5001 50.2999 8.4001 45.5C5.8001 41.3 3.6001 36.7999 2.2001 32.0999Z" fill="url(#paint14_radial_122_427)"/>
<g opacity="0.4">
<path opacity="0.4" d="M28.6001 59.7C27.8001 59.5 26.7001 59.4 26.2001 59.4C23.1001 59.7 23.8001 62.2 26.7001 62.1C27.6001 62.1 28.6001 61.8 29.1001 61.4C30.2001 60.5 29.6001 60 28.6001 59.7Z" fill="url(#paint15_radial_122_427)"/>
<path opacity="0.4" d="M22.7 59.5C22.6 58.9 22.1 58.3 21.7 58C20.7 57.1 19.2 57.3 19.8 58.9C20.1 59.6 21.1 60.6 21.9 60.4C22.6 60.2 22.8 59.9 22.7 59.5Z" fill="url(#paint16_radial_122_427)"/>
</g>
<path d="M30.5 66C27.6 65.8 25.2 65 23.1 63.5C27.1 63.8 32.6 63.1 39.9 58.6C47.5 53.9 51.5 48.7 53.6 45.3C53.8 47.4 53.5 49.5 52.6 51.8C49.5 60 39.3 66.5 30.5 66Z" fill="url(#paint17_radial_122_427)"/>
<path opacity="0.3" d="M41 58.5C45.2 57 49 54.8 52.5 52.1C49.2 60.2 39.2 66.6 30.5 66C27.6 65.8 25.2 65 23.1 63.5C26.8 63.8 31.8 63.2 38.4 59.5C39.3 59.2 40.1 58.8 41 58.5Z" fill="url(#paint18_radial_122_427)"/>
<path d="M11.9001 14.1C8.00005 16.6 3.90005 18.3 4.95911e-05 19.3C-0.0999508 16.4 0.10005 13.5 0.50005 10.6C0.900049 7.89999 1.50005 4.99999 2.40005 2.49999C2.70005 1.59999 3.20005 0.999991 3.80005 0.599991C4.80005 -0.100009 6.20005 -0.200009 7.70005 -8.97795e-06C12.8001 0.599991 17.7 2.09999 22.3 4.39999C19.8 7.99999 16.3001 11.4 11.9001 14.1Z" fill="url(#paint19_radial_122_427)"/>
<path opacity="0.3" d="M0.50005 10.7C2.60005 12 5.20005 12.5 7.60005 11.7C11.1 10.4 15.3 8.6 17.6 5.4C17.8 5.1 18.0001 4.8 18.2001 4.4C18.6001 4 18.9 3.5 19.3 3C20.3 3.4 21.3 3.9 22.3 4.3C19.7 7.9 16.1 11.2 11.8 14C7.90005 16.5 3.80005 18.2 -0.0999489 19.2C5.14984e-05 16.4 0.10005 13.6 0.50005 10.7Z" fill="url(#paint20_radial_122_427)"/>
<g opacity="0.5">
<path opacity="0.5" d="M6.10004 4.09996C7.00004 4.19996 8.10004 4.19996 8.50004 4.09996C11.5 3.39996 10.5 0.999961 7.60004 1.49996C6.70004 1.59996 5.80004 2.09996 5.30004 2.59996C4.50004 3.49996 5.20004 3.89996 6.10004 4.09996Z" fill="url(#paint21_linear_122_427)"/>
<path opacity="0.5" d="M12.1001 3.49993C12.3001 3.99993 12.9001 4.59993 13.3001 4.89993C14.4001 5.69993 15.9001 5.29993 15.0001 3.79993C14.6001 3.19993 13.5001 2.29993 12.7001 2.59993C12.1001 2.69993 11.9001 3.09993 12.1001 3.49993Z" fill="url(#paint22_linear_122_427)"/>
</g>
<path d="M20.8999 50C24.6999 55.8 32.3999 57.6 38.1999 53.8C43.9999 50.1 45.6999 42.3 41.8999 36.5C38.0999 30.7 30.3999 28.9 24.5999 32.7C18.7999 36.4 17.0999 44.1 20.8999 50Z" fill="url(#paint23_radial_122_427)"/>
<path d="M21.3999 48.9C24.9999 54.5 32.3999 56.1 37.8999 52.5C43.4999 48.9 45.0999 41.5 41.4999 36C37.8999 30.4 30.4999 28.8 24.9999 32.4C19.4999 35.9 17.8999 43.3 21.3999 48.9Z" fill="url(#paint24_linear_122_427)"/>
<path d="M21.3 46.2C20.3 44.7 19.8 43 19.6 41.3C19.9 37.8 21.8 34.4 25 32.3C30.6 28.7 37.9 30.3 41.5 35.9C41.8 36.3 42 36.7 42.2 37.1C43.4 41.8 41.5 46.9 37.3 49.6C31.9 53.1 24.8 51.6 21.3 46.2Z" fill="url(#paint25_linear_122_427)"/>
<path d="M23.5 47.5C26.3 51.9 32.2 53.2 36.6 50.3C41 47.5 42.3 41.6 39.4 37.2C36.6 32.8 30.7 31.5 26.3 34.4C22 37.3 20.7 43.1 23.5 47.5Z" fill="url(#paint26_radial_122_427)"/>
<path d="M24.9999 44.4C27.0999 47.6 31.3999 48.6 34.5999 46.5C37.7999 44.4 38.7999 40.1 36.6999 36.9C34.5999 33.7 30.2999 32.7 27.0999 34.8C23.7999 36.9 22.8999 41.1 24.9999 44.4Z" fill="url(#paint27_radial_122_427)"/>
<path d="M35.1 47.6999C34.4 47.7999 33.5 48.0999 33.2 48.2999C30.9 49.5999 32.4 51.2999 34.6 50.1999C35.3 49.8999 35.9 49.2999 36.1 48.7999C36.6 47.7999 36 47.5999 35.1 47.6999Z" fill="url(#paint28_radial_122_427)"/>
<path d="M30.5 49.6999C30.2 49.2999 29.6 48.9999 29.2 48.8999C28.1 48.5999 27 49.1999 28.1 50.1999C28.6 50.5999 29.7 50.9999 30.2 50.5999C30.7 50.2999 30.7 49.8999 30.5 49.6999Z" fill="url(#paint29_radial_122_427)"/>
<path d="M11.6999 28.8C14.2999 32.9 19.6999 34.1 23.7999 31.5C27.7999 28.9 28.9999 23.5 26.3999 19.4C23.7999 15.3 18.3999 14.1 14.2999 16.7C10.2999 19.3 9.09987 24.7 11.6999 28.8Z" fill="url(#paint30_radial_122_427)"/>
<path d="M12.0998 28C14.5998 31.9 19.6998 33 23.5998 30.5C27.4998 28 28.5998 22.9 26.0998 19C23.5998 15.1 18.4998 14 14.5998 16.5C10.7998 19 9.59982 24.1 12.0998 28Z" fill="url(#paint31_linear_122_427)"/>
<path d="M12.1 26.1C11.4 25 11 23.9 10.9 22.7C11.1 20.2 12.4 17.9 14.7 16.4C18.6 13.9 23.7 15 26.2 18.9C26.4 19.2 26.5 19.5 26.7 19.7C27.5 23 26.2 26.5 23.2 28.4C19.4 31 14.5 29.9 12.1 26.1Z" fill="url(#paint32_linear_122_427)"/>
<path d="M13.6 27C15.6 30.1 19.6 31 22.7 29C25.8 27 26.7 23 24.7 19.9C22.7 16.8 18.7 15.9 15.6 17.9C12.5 19.9 11.6 24 13.6 27Z" fill="url(#paint33_radial_122_427)"/>
<path d="M14.5999 24.8C15.9999 27.1 18.9999 27.7 21.2999 26.3C23.5999 24.9 24.1999 21.9 22.7999 19.6C21.3999 17.3 18.3999 16.7 16.0999 18.1C13.7999 19.6 13.0999 22.6 14.5999 24.8Z" fill="url(#paint34_radial_122_427)"/>
<path d="M21.7 27.2C21.2 27.3 20.6 27.5 20.4 27.7C18.8 28.6 19.8 29.8 21.4 29C21.9 28.8 22.3 28.4 22.5 28C22.7 27.2 22.3 27.1 21.7 27.2Z" fill="url(#paint35_radial_122_427)"/>
<path d="M18.5 28.5C18.3 28.2 17.9 28 17.6 27.9C16.8 27.7 16.1 28.1 16.8 28.8C17.1 29.1 17.9 29.4 18.3 29.1C18.6 29 18.6 28.7 18.5 28.5Z" fill="url(#paint36_radial_122_427)"/>
</g>
<defs>
<radialGradient id="paint0_radial_122_427" cx="0" cy="0" r="1" gradientUnits="userSpaceOnUse" gradientTransform="translate(39.1961 57.2157) rotate(53.3639) scale(42.8479 61.517)">
<stop offset="0.1882" stop-color="#0683EA"/>
<stop offset="0.6034" stop-color="#0BB3F6"/>
<stop offset="1" stop-color="#F2F4FF"/>
</radialGradient>
<radialGradient id="paint1_radial_122_427" cx="0" cy="0" r="1" gradientUnits="userSpaceOnUse" gradientTransform="translate(38.666 56.4185) rotate(54.9712) scale(33.0273 46.7201)">
<stop offset="0.1882" stop-color="#0683EA"/>
<stop offset="0.6034" stop-color="#0BB3F6"/>
<stop offset="1" stop-color="#F2F4FF"/>
</radialGradient>
<radialGradient id="paint2_radial_122_427" cx="0" cy="0" r="1" gradientUnits="userSpaceOnUse" gradientTransform="translate(37.901 55.1052) rotate(54.9712) scale(18.4012 26.0302)">
<stop offset="0.1882" stop-color="#0683EA"/>
<stop offset="0.6034" stop-color="#0BB3F6"/>
<stop offset="1" stop-color="#F2F4FF"/>
</radialGradient>
<radialGradient id="paint3_radial_122_427" cx="0" cy="0" r="1" gradientUnits="userSpaceOnUse" gradientTransform="translate(48.7098 17.4587) rotate(147.297) scale(39.7036 48.0703)">
<stop stop-color="#F2F4FF"/>
<stop offset="0.3966" stop-color="#0BB3F6"/>
<stop offset="0.8118" stop-color="#0683EA"/>
</radialGradient>
<radialGradient id="paint4_radial_122_427" cx="0" cy="0" r="1" gradientUnits="userSpaceOnUse" gradientTransform="translate(50.8683 23.459) rotate(147.297) scale(30.9104 37.4241)">
<stop stop-color="#F2F4FF"/>
<stop offset="0.3966" stop-color="#0BB3F6"/>
<stop offset="0.8118" stop-color="#0683EA"/>
</radialGradient>
<radialGradient id="paint5_radial_122_427" cx="0" cy="0" r="1" gradientUnits="userSpaceOnUse" gradientTransform="translate(48.709 17.458) rotate(147.297) scale(39.7042 48.071)">
<stop stop-color="#F2F4FF"/>
<stop offset="0.3966" stop-color="#0BB3F6"/>
<stop offset="0.8118" stop-color="#0683EA"/>
</radialGradient>
<radialGradient id="paint6_radial_122_427" cx="0" cy="0" r="1" gradientUnits="userSpaceOnUse" gradientTransform="translate(59.1243 -69.8611) rotate(129.826) scale(33.3526 39.2305)">
<stop stop-color="#F2F4FF"/>
<stop offset="0.3966" stop-color="#0BB3F6"/>
<stop offset="0.8118" stop-color="#0683EA"/>
</radialGradient>
<radialGradient id="paint7_radial_122_427" cx="0" cy="0" r="1" gradientUnits="userSpaceOnUse" gradientTransform="translate(74.7006 -50.4731) rotate(-175.343) scale(34.9945 37.4114)">
<stop stop-color="#F2F4FF"/>
<stop offset="0.3966" stop-color="#0BB3F6"/>
<stop offset="0.8118" stop-color="#0683EA"/>
</radialGradient>
<radialGradient id="paint8_radial_122_427" cx="0" cy="0" r="1" gradientUnits="userSpaceOnUse" gradientTransform="translate(1.04953 48.061) rotate(-32.7032) scale(39.7049 48.0719)">
<stop stop-color="#F2F4FF"/>
<stop offset="0.3966" stop-color="#0BB3F6"/>
<stop offset="0.8118" stop-color="#0683EA"/>
</radialGradient>
<radialGradient id="paint9_radial_122_427" cx="0" cy="0" r="1" gradientUnits="userSpaceOnUse" gradientTransform="translate(5.60882 52.5216) rotate(-32.7032) scale(30.9106 37.4244)">
<stop stop-color="#F2F4FF"/>
<stop offset="0.3966" stop-color="#0BB3F6"/>
<stop offset="0.8118" stop-color="#0683EA"/>
</radialGradient>
<radialGradient id="paint10_radial_122_427" cx="0" cy="0" r="1" gradientUnits="userSpaceOnUse" gradientTransform="translate(1.05097 48.0613) rotate(-32.7032) scale(39.7037 48.0704)">
<stop stop-color="#F2F4FF"/>
<stop offset="0.3966" stop-color="#0BB3F6"/>
<stop offset="0.8118" stop-color="#0683EA"/>
</radialGradient>
<radialGradient id="paint11_radial_122_427" cx="0" cy="0" r="1" gradientUnits="userSpaceOnUse" gradientTransform="translate(-82.6847 21.2325) rotate(-15.2388) scale(33.351 39.2242)">
<stop stop-color="#F2F4FF"/>
<stop offset="0.3966" stop-color="#0BB3F6"/>
<stop offset="0.8118" stop-color="#0683EA"/>
</radialGradient>
<radialGradient id="paint12_radial_122_427" cx="0" cy="0" r="1" gradientUnits="userSpaceOnUse" gradientTransform="translate(-71.5528 43.4212) rotate(-70.0684) scale(35.003 37.4191)">
<stop stop-color="#F2F4FF"/>
<stop offset="0.3966" stop-color="#0BB3F6"/>
<stop offset="0.8118" stop-color="#0683EA"/>
</radialGradient>
<radialGradient id="paint13_radial_122_427" cx="0" cy="0" r="1" gradientUnits="userSpaceOnUse" gradientTransform="translate(23.905 -12.315) rotate(147.297) scale(75.64)">
<stop offset="0.0555556" stop-color="#FAF1D6"/>
<stop offset="0.2369" stop-color="#F8EDD3"/>
<stop offset="0.422" stop-color="#F2E1CA"/>
<stop offset="0.6089" stop-color="#E8CCBA"/>
<stop offset="0.7958" stop-color="#DAB0A5"/>
<stop offset="0.9519" stop-color="#CC928E"/>
</radialGradient>
<radialGradient id="paint14_radial_122_427" cx="0" cy="0" r="1" gradientUnits="userSpaceOnUse" gradientTransform="translate(23.9066 -12.3143) rotate(147.297) scale(75.6393)">
<stop offset="0.0555556" stop-color="#FAF1D6"/>
<stop offset="0.2369" stop-color="#F8EDD3"/>
<stop offset="0.422" stop-color="#F2E1CA"/>
<stop offset="0.6089" stop-color="#E8CCBA"/>
<stop offset="0.7958" stop-color="#DAB0A5"/>
<stop offset="0.9519" stop-color="#CC928E"/>
</radialGradient>
<radialGradient id="paint15_radial_122_427" cx="0" cy="0" r="1" gradientUnits="userSpaceOnUse" gradientTransform="translate(-9.23022 163.628) rotate(-39.7667) scale(54.3411)">
<stop offset="0.0555556" stop-color="#FAF1D6"/>
<stop offset="0.2369" stop-color="#F8EDD3"/>
<stop offset="0.422" stop-color="#F2E1CA"/>
<stop offset="0.6089" stop-color="#E8CCBA"/>
<stop offset="0.7958" stop-color="#DAB0A5"/>
<stop offset="0.9519" stop-color="#CC928E"/>
</radialGradient>
<radialGradient id="paint16_radial_122_427" cx="0" cy="0" r="1" gradientUnits="userSpaceOnUse" gradientTransform="translate(-20.0677 167.209) rotate(7.03618) scale(54.3428)">
<stop offset="0.0555556" stop-color="#FAF1D6"/>
<stop offset="0.2369" stop-color="#F8EDD3"/>
<stop offset="0.422" stop-color="#F2E1CA"/>
<stop offset="0.6089" stop-color="#E8CCBA"/>
<stop offset="0.7958" stop-color="#DAB0A5"/>
<stop offset="0.9519" stop-color="#CC928E"/>
</radialGradient>
<radialGradient id="paint17_radial_122_427" cx="0" cy="0" r="1" gradientUnits="userSpaceOnUse" gradientTransform="translate(43.8121 26.2386) rotate(147.297) scale(42.872)">
<stop stop-color="#FF5731"/>
<stop offset="0.6983" stop-color="#BA005E"/>
<stop offset="0.9478" stop-color="#5E1377"/>
</radialGradient>
<radialGradient id="paint18_radial_122_427" cx="0" cy="0" r="1" gradientUnits="userSpaceOnUse" gradientTransform="translate(43.8122 26.2375) rotate(147.297) scale(50.4173)">
<stop stop-color="#5E1377"/>
<stop offset="0.9972" stop-color="#8160FF"/>
</radialGradient>
<radialGradient id="paint19_radial_122_427" cx="0" cy="0" r="1" gradientUnits="userSpaceOnUse" gradientTransform="translate(5.3191 -4.90289) rotate(147.297) scale(22.2584)">
<stop stop-color="#FF5731"/>
<stop offset="0.6983" stop-color="#BA005E"/>
<stop offset="0.9478" stop-color="#5E1377"/>
</radialGradient>
<radialGradient id="paint20_radial_122_427" cx="0" cy="0" r="1" gradientUnits="userSpaceOnUse" gradientTransform="translate(5.31957 -4.90271) rotate(147.297) scale(22.2584)">
<stop stop-color="#5E1377"/>
<stop offset="0.9972" stop-color="#8160FF"/>
</radialGradient>
<linearGradient id="paint21_linear_122_427" x1="9.33124" y1="1.16018" x2="6.14656" y2="4.60817" gradientUnits="userSpaceOnUse">
<stop stop-color="#FFFF29"/>
<stop offset="1" stop-color="#FF7E59"/>
</linearGradient>
<linearGradient id="paint22_linear_122_427" x1="15.2378" y1="3.87766" x2="12.0296" y2="3.90429" gradientUnits="userSpaceOnUse">
<stop stop-color="#FFFF29"/>
<stop offset="1" stop-color="#FF7E59"/>
</linearGradient>
<radialGradient id="paint23_radial_122_427" cx="0" cy="0" r="1" gradientUnits="userSpaceOnUse" gradientTransform="translate(31.3894 43.2331) rotate(147.297) scale(12.5237)">
<stop offset="0.0555556" stop-color="#FAF1D6"/>
<stop offset="0.2369" stop-color="#F8EDD3"/>
<stop offset="0.422" stop-color="#F2E1CA"/>
<stop offset="0.6089" stop-color="#E8CCBA"/>
<stop offset="0.7958" stop-color="#DAB0A5"/>
<stop offset="0.9519" stop-color="#CC928E"/>
</radialGradient>
<linearGradient id="paint24_linear_122_427" x1="41.5452" y1="35.9695" x2="21.4341" y2="48.8822" gradientUnits="userSpaceOnUse">
<stop stop-color="#FFFF29"/>
<stop offset="1" stop-color="#FF7E59"/>
</linearGradient>
<linearGradient id="paint25_linear_122_427" x1="40.8131" y1="34.8289" x2="21.842" y2="47.0097" gradientUnits="userSpaceOnUse">
<stop stop-color="#FFFF29"/>
<stop offset="1" stop-color="#FF7E59"/>
</linearGradient>
<radialGradient id="paint26_radial_122_427" cx="0" cy="0" r="1" gradientUnits="userSpaceOnUse" gradientTransform="translate(26.2772 28.9753) rotate(147.297) scale(22.5303)">
<stop offset="0.052173" stop-color="#5E1377"/>
<stop offset="1" stop-color="#000534"/>
</radialGradient>
<radialGradient id="paint27_radial_122_427" cx="0" cy="0" r="1" gradientUnits="userSpaceOnUse" gradientTransform="translate(26.9939 30.7327) rotate(147.297) scale(16.5659)">
<stop offset="0.052173" stop-color="#5E1377"/>
<stop offset="1" stop-color="#000534"/>
</radialGradient>
<radialGradient id="paint28_radial_122_427" cx="0" cy="0" r="1" gradientUnits="userSpaceOnUse" gradientTransform="translate(43.9369 66.9566) rotate(-64.8111) scale(35.7683)">
<stop offset="0.052173" stop-color="#5E1377"/>
<stop offset="1" stop-color="#000534"/>
</radialGradient>
<radialGradient id="paint29_radial_122_427" cx="0" cy="0" r="1" gradientUnits="userSpaceOnUse" gradientTransform="translate(36.833 77.9036) rotate(-18.0109) scale(35.7881)">
<stop offset="0.052173" stop-color="#5E1377"/>
<stop offset="1" stop-color="#000534"/>
</radialGradient>
<radialGradient id="paint30_radial_122_427" cx="0" cy="0" r="1" gradientUnits="userSpaceOnUse" gradientTransform="translate(19.0685 24.046) rotate(147.297) scale(8.7414)">
<stop offset="0.0555556" stop-color="#FAF1D6"/>
<stop offset="0.2369" stop-color="#F8EDD3"/>
<stop offset="0.422" stop-color="#F2E1CA"/>
<stop offset="0.6089" stop-color="#E8CCBA"/>
<stop offset="0.7958" stop-color="#DAB0A5"/>
<stop offset="0.9519" stop-color="#CC928E"/>
</radialGradient>
<linearGradient id="paint31_linear_122_427" x1="26.156" y1="18.9763" x2="12.1195" y2="27.9887" gradientUnits="userSpaceOnUse">
<stop stop-color="#FFFF29"/>
<stop offset="1" stop-color="#FF7E59"/>
</linearGradient>
<linearGradient id="paint32_linear_122_427" x1="25.6456" y1="18.1811" x2="12.4057" y2="26.682" gradientUnits="userSpaceOnUse">
<stop stop-color="#FFFF29"/>
<stop offset="1" stop-color="#FF7E59"/>
</linearGradient>
<radialGradient id="paint33_radial_122_427" cx="0" cy="0" r="1" gradientUnits="userSpaceOnUse" gradientTransform="translate(15.5021 14.0957) rotate(147.297) scale(15.7236)">
<stop offset="0.052173" stop-color="#5E1377"/>
<stop offset="1" stop-color="#000534"/>
</radialGradient>
<radialGradient id="paint34_radial_122_427" cx="0" cy="0" r="1" gradientUnits="userSpaceOnUse" gradientTransform="translate(16.001 15.3226) rotate(147.297) scale(11.5629)">
<stop offset="0.052173" stop-color="#5E1377"/>
<stop offset="1" stop-color="#000534"/>
</radialGradient>
<radialGradient id="paint35_radial_122_427" cx="0" cy="0" r="1" gradientUnits="userSpaceOnUse" gradientTransform="translate(27.8203 40.6007) rotate(-64.8111) scale(24.9546)">
<stop offset="0.052173" stop-color="#5E1377"/>
<stop offset="1" stop-color="#000534"/>
</radialGradient>
<radialGradient id="paint36_radial_122_427" cx="0" cy="0" r="1" gradientUnits="userSpaceOnUse" gradientTransform="translate(22.8712 48.2533) rotate(-18.011) scale(24.9895)">
<stop offset="0.052173" stop-color="#5E1377"/>
<stop offset="1" stop-color="#000534"/>
</radialGradient>
<clipPath id="clip0_122_427">
<rect width="71.5" height="91.6" fill="white" transform="matrix(-1 0 0 1 71.5 0)"/>
</clipPath>
</defs>
</svg>
